# Blender 4.1.1
# www.blender.org
mtllib instant noodle pack.mtl
o Cube
v -1.500000 -1.000000 0.750000
v -1.500000 1.000000 0.750000
v -1.500000 -1.000000 -0.750000
v -1.500000 1.000000 -0.750000
v 1.500000 -1.000000 0.750000
v 1.500000 1.000000 0.750000
v 1.500000 -1.000000 -0.750000
v 1.500000 1.000000 -0.750000
v -1.500000 1.400000 0.000000
v 1.500000 1.400000 0.000000
v -1.500000 1.400000 0.000000
v 1.500000 1.400000 0.000000
v -1.350000 1.000000 -0.750000
v 1.350000 1.000000 -0.750000
v -1.350000 1.400000 0.000000
v 1.350000 1.400000 0.000000
v 1.350000 1.000000 0.750000
v -1.350000 1.000000 0.750000
v 1.350000 1.400000 0.000000
v -1.350000 1.400000 0.000000
v -1.350000 1.000000 0.750000
v -1.350000 1.000000 -0.750000
v 1.350000 1.000000 -0.750000
v 1.350000 1.000000 0.750000
v -1.500000 1.400000 0.000000
v 1.500000 1.400000 0.000000
v -1.500000 1.500000 0.000000
v 1.500000 1.500000 0.000000
v -1.500000 -1.000000 0.750000
v -1.500000 -1.000000 -0.750000
v 1.500000 -1.000000 0.750000
v 1.500000 -1.000000 -0.750000
v -1.500000 -1.400000 0.000000
v 1.500000 -1.400000 0.000000
v -1.500000 -1.400000 0.000000
v 1.500000 -1.400000 0.000000
v -1.350000 -1.000000 -0.750000
v 1.350000 -1.000000 -0.750000
v -1.350000 -1.400000 0.000000
v 1.350000 -1.400000 0.000000
v 1.350000 -1.000000 0.750000
v -1.350000 -1.000000 0.750000
v 1.350000 -1.400000 0.000000
v -1.350000 -1.400000 0.000000
v -1.350000 -1.000000 0.750000
v -1.350000 -1.000000 -0.750000
v 1.350000 -1.000000 -0.750000
v 1.350000 -1.000000 0.750000
v -1.500000 -1.400000 0.000000
v 1.500000 -1.400000 0.000000
v -1.500000 -1.500000 0.000000
v 1.500000 -1.500000 0.000000
vn -1.0000 -0.0000 -0.0000
vn -0.0000 -0.0000 -1.0000
vn 1.0000 -0.0000 -0.0000
vn -0.0000 -0.0000 1.0000
vn -0.0000 -1.0000 -0.0000
vn -0.0000 1.0000 -0.0000
vn -0.0000 0.8824 0.4706
vn -0.0000 0.8824 -0.4706
vn -0.0000 -0.8824 0.4706
vn -0.0000 -0.8824 -0.4706
vt 0.747553 0.696582
vt 0.747553 1.000664
vt 0.500321 1.000664
vt 0.500321 0.696581
vt 0.501402 0.705259
vt 0.501402 0.999844
vt 0.000519 0.999844
vt 0.000519 0.705259
vt 0.745674 0.420257
vt 0.745674 0.697022
vt 0.499998 0.697022
vt 0.499998 0.420257
vt 0.500228 0.395998
vt 0.500228 0.705696
vt 0.000169 0.705696
vt 0.000169 0.395998
vt 0.663652 0.269902
vt 0.554625 0.269902
vt 0.554625 0.182897
vt 0.663652 0.182897
vt 0.614796 0.346301
vt 0.500096 0.267854
vt 0.475153 0.267854
vt 0.475153 0.181649
vt 0.500096 0.181649
vt 0.000621 0.269797
vt 0.025658 0.269797
vt 0.025657 0.395287
vt 0.000621 0.395287
vt 0.476308 0.269797
vt 0.476308 0.395287
vt 0.501344 0.395287
vt 0.501344 0.269797
vt 0.026174 0.267854
vt 0.026174 0.181649
vt 0.001231 0.181649
vt 0.001231 0.267854
vt 0.000162 0.044572
vt 0.669829 0.044572
vt 0.669829 0.089401
vt 0.000162 0.089401
vt 0.773641 0.182800
vt 1.000056 0.182800
vt 1.000056 0.204181
vt 0.898938 0.269606
vt 0.773641 0.204181
vt 0.774492 0.182389
vt 0.774492 0.204440
vt 0.886894 0.268847
vt 0.999813 0.204440
vt 0.999813 0.182389
vt 1.001077 0.182334
vt 1.001077 0.268383
vt 0.976078 0.268383
vt 0.976078 0.182334
vt 0.500351 0.391663
vt 0.500351 0.268326
vt 0.525337 0.268326
vt 0.525337 0.391663
vt 0.975083 0.391663
vt 0.975083 0.268326
vt 1.000069 0.268326
vt 1.000069 0.391663
vt 0.526103 0.268383
vt 0.526103 0.182334
vt 0.501104 0.268383
vt 0.501104 0.182334
vt 0.669048 0.046248
vt 0.669048 -0.000241
vt 0.000906 -0.000241
vt 0.000906 0.046248
vt 0.770874 0.268289
vt 0.890950 0.180800
vt 1.000134 0.268289
vt 0.999942 0.268490
vt 0.772103 0.268490
vt 0.887838 0.182254
vt 0.653129 0.268338
vt 0.556060 0.268338
vt 0.550667 0.268338
vt 0.550667 0.182268
vt 0.556060 0.182268
vt 0.653129 0.182268
vt 0.658522 0.182268
vt 0.658522 0.268338
s 0
usemtl Material
f 1/1/1 2/2/1 4/3/1 3/4/1
f 3/5/2 4/6/2 8/7/2 7/8/2
f 7/9/3 8/10/3 6/11/3 5/12/3
f 5/13/4 6/14/4 2/15/4 1/16/4
f 3/17/5 7/18/5 5/19/5 1/20/5
f 2/21/6 6/21/6 24/21/6 21/21/6
f 10/22/7 19/23/7 17/24/7 6/25/7
f 8/26/8 14/27/8 16/28/8 12/29/8
f 13/30/8 15/31/8 16/28/8 14/27/8
f 12/21/6 11/21/6 15/21/6 16/21/6
f 4/21/6 8/21/6 14/21/6 13/21/6
f 11/32/8 15/31/8 13/30/8 4/33/8
f 17/24/7 19/23/7 20/34/7 18/35/7
f 6/21/6 2/21/6 18/21/6 17/21/6
f 2/36/7 18/35/7 20/34/7 9/37/7
f 9/21/6 10/21/6 19/21/6 20/21/6
f 8/21/6 4/21/6 22/21/6 23/21/6
f 11/21/6 12/21/6 26/21/6 25/21/6
f 25/38/4 26/39/4 28/40/4 27/41/4
f 17/42/3 23/43/3 14/44/3 19/45/3 16/45/3 24/46/3
f 18/47/1 21/48/1 15/49/1 20/49/1 13/50/1 22/51/1
f 34/52/9 31/53/9 41/54/9 43/55/9
f 32/56/10 36/57/10 40/58/10 38/59/10
f 37/60/10 38/59/10 40/58/10 39/61/10
f 35/62/10 30/63/10 37/60/10 39/61/10
f 41/54/9 42/64/9 44/65/9 43/55/9
f 29/66/9 33/67/9 44/65/9 42/64/9
f 49/68/4 51/69/4 52/70/4 50/71/4
f 41/72/3 48/72/3 40/73/3 43/73/3 38/74/3 47/74/3
f 42/75/1 46/76/1 37/76/1 44/77/1 39/77/1 45/75/1
f 23/78/6 22/79/6 4/80/6 2/81/6 21/82/6 24/83/6 6/84/6 8/85/6
l 14 17
